<svg xmlns="http://www.w3.org/2000/svg" version="1.1" xmlns:xlink="http://www.w3.org/1999/xlink" xmlns:svgjs="http://svgjs.dev/svgjs" width="1440" height="560" preserveAspectRatio="none" viewBox="0 0 1440 560"><g mask="url(&quot;#SvgjsMask1013&quot;)" fill="none"><rect width="1440" height="560" x="0" y="0" fill="rgba(197, 203, 205, 1)"></rect><path d="M0,488.322C124.255,492.418,250.259,618.95,358.684,558.123C465.5,498.199,452.086,338.425,479.834,219.133C502.412,122.066,503.038,26.963,505.41,-72.667C508.297,-193.966,578.74,-341.095,495.265,-429.15C410.767,-518.284,255.227,-433.81,135.815,-462.543C25.231,-489.152,-63.154,-618.6,-173.241,-590.004C-282.831,-561.537,-312.819,-420.329,-379.366,-328.722C-439.387,-246.099,-509.908,-174.28,-544.928,-78.349C-586.486,35.491,-637.042,158.528,-599.279,273.682C-560.538,391.82,-460.849,493.044,-343.802,534.966C-232.674,574.768,-117.977,484.433,0,488.322" fill="#9aa4a8"></path><path d="M1440 927.6659999999999C1524.179 932.735 1615.689 989.344 1687.279 944.773 1758.761 900.27 1751.3229999999999 794.501 1780.663 715.575 1807.516 643.341 1862.271 577.136 1852.357 500.712 1842.407 424.01599999999996 1772.529 373.664 1728.095 310.36400000000003 1677.741 238.63 1652.782 142.18900000000002 1573.8899999999999 104.01400000000001 1492.104 64.43799999999999 1391.198 72.757 1306.848 106.524 1225.823 138.95999999999998 1178.0430000000001 217.558 1122.366 284.768 1067.967 350.435 993.799 409.779 985.338 494.63 976.946 578.787 1038.5149999999999 650.563 1078.455 725.112 1115.821 794.856 1142.1190000000001 877.4300000000001 1211.147 916.1030000000001 1279.161 954.2080000000001 1362.18 922.98 1440 927.6659999999999" fill="#f0f2f2"></path></g><defs><mask id="SvgjsMask1013"><rect width="1440" height="560" fill="#ffffff"></rect></mask></defs></svg>